<svg width="100%" height="auto" viewBox="0 0 145 283" fill="none" xmlns="http://www.w3.org/2000/svg">
<path fill-rule="evenodd" clip-rule="evenodd" d="M144 265.712C144 274.708 136.214 282 126.609 282H20.6386C11.0339 282 3.24805 274.708 3.24805 265.712V19.3434C3.24805 10.3469 11.0339 3.05542 20.6386 3.05542H126.609C136.214 3.05542 144 10.3469 144 19.3434V265.712Z" stroke="white" stroke-width="2"/>
<path d="M134.18 39.6393H12.9915V242.408H134.18V39.6393Z" fill="#2E3440" stroke="#2E3440" stroke-width="2"/>
<path fill-rule="evenodd" clip-rule="evenodd" d="M86.6161 29.1956C86.6161 29.8424 86.1408 30.3639 85.5551 30.3639H63.7903C63.2035 30.3639 62.7292 29.8414 62.7292 29.1956V26.5679C62.7292 25.9211 63.2046 25.3997 63.7903 25.3997H85.5551C86.1408 25.3997 86.6161 25.9222 86.6161 26.5679V29.1956Z" stroke="white"/>
<path d="M73.6246 19.3517C75.4185 19.3517 76.8728 17.9837 76.8728 16.2961C76.8728 14.6086 75.4185 13.2406 73.6246 13.2406C71.8307 13.2406 70.3765 14.6086 70.3765 16.2961C70.3765 17.9837 71.8307 19.3517 73.6246 19.3517Z" stroke="white"/>
<path d="M52.5118 29.5369C53.4087 29.5369 54.1358 28.8529 54.1358 28.0091C54.1358 27.1653 53.4087 26.4813 52.5118 26.4813C51.6148 26.4813 50.8877 27.1653 50.8877 28.0091C50.8877 28.8529 51.6148 29.5369 52.5118 29.5369Z" stroke="white"/>
<path d="M73.6671 271.862C79.6707 271.862 84.5376 267.301 84.5376 261.676C84.5376 256.05 79.6707 251.49 73.6671 251.49C67.6635 251.49 62.7966 256.05 62.7966 261.676C62.7966 267.301 67.6635 271.862 73.6671 271.862Z" stroke="#7E89A3"/>
<rect x="111.52" width="12.9926" height="2.03702" fill="white"/>
<rect y="99.8141" width="10.1851" height="2.16543" transform="rotate(-90 0 99.8141)" fill="white"/>
<rect y="79.4438" width="10.1851" height="2.16543" transform="rotate(-90 0 79.4438)" fill="white"/>
<rect y="51.9441" width="12.2221" height="2.16543" transform="rotate(-90 0 51.9441)" fill="white"/>
<g clip-path="url(#clip0)">
<path d="M68.9731 108.759H75.0365V111.68H68.9731V108.759Z" fill="white"/>
<path d="M120.729 104.394L110.432 102.978C108.554 101.867 106.606 100.873 104.597 100C97.9622 97.1057 90.7614 95.6122 83.4773 95.62H81.6885C73.0925 95.6259 64.634 97.7033 57.084 101.663L51.8873 104.393C45.8042 104.459 39.8383 106.017 34.5533 108.919C32.4056 110.105 31.0794 112.306 31.0757 114.69V123.359C31.0757 124.166 31.7542 124.819 32.5918 124.819H37.6819C39.3374 129.368 44.5083 131.763 49.2313 130.169C51.8312 129.291 53.8747 127.323 54.7858 124.819H95.2864C96.942 129.368 102.113 131.763 106.836 130.169C109.435 129.291 111.479 127.323 112.39 124.819H112.934C113.127 124.819 113.319 124.784 113.498 124.715L118.408 122.818C120.601 121.981 122.038 119.937 122.03 117.666V105.84C122.03 105.114 121.475 104.498 120.729 104.394ZM52.1754 123.067C51.5049 126.227 48.3017 128.265 45.0208 127.62C41.7393 126.974 39.623 123.889 40.2935 120.729C40.9646 117.569 44.1678 115.531 47.4486 116.176C50.2718 116.732 52.2987 119.124 52.2981 121.899C52.2981 122.292 52.2568 122.683 52.1754 123.067ZM79.5845 121.899H55.3298C55.3298 117.061 51.2582 113.139 46.2347 113.139C41.2113 113.139 37.1391 117.061 37.1391 121.899H34.1074V114.69C34.1092 113.353 34.8531 112.118 36.0584 111.453C41.0053 108.733 46.6024 107.302 52.2981 107.3H79.5845V121.899ZM79.5845 104.38H58.2437L58.5361 104.226C65.017 100.834 72.216 98.9111 79.5845 98.6039V104.38ZM82.6162 98.5398H83.4742C89.5832 98.5332 95.6368 99.6501 101.311 101.831L98.6641 104.38H82.6162V98.5398ZM109.78 123.067C109.109 126.227 105.906 128.265 102.625 127.62C99.3439 126.974 97.2275 123.889 97.898 120.729C98.5685 117.569 101.772 115.531 105.053 116.176C107.876 116.732 109.903 119.124 109.903 121.899C109.903 122.292 109.861 122.683 109.78 123.067ZM118.998 108.759H114.45V111.68H118.998V117.666C119.002 118.741 118.321 119.71 117.282 120.105L112.934 121.787C112.934 121.652 112.916 121.519 112.907 121.385C112.898 121.251 112.895 121.093 112.88 120.947C112.865 120.801 112.834 120.655 112.81 120.509C112.786 120.363 112.768 120.217 112.738 120.085C112.707 119.952 112.663 119.804 112.623 119.665C112.584 119.527 112.554 119.387 112.508 119.251C112.463 119.115 112.408 118.985 112.357 118.852C112.305 118.719 112.258 118.582 112.205 118.45C112.152 118.319 112.081 118.2 112.017 118.075C111.954 117.951 111.891 117.815 111.82 117.69C111.749 117.565 111.669 117.458 111.6 117.341C111.532 117.224 111.449 117.091 111.363 116.972C111.276 116.852 111.196 116.757 111.112 116.649C111.029 116.541 110.935 116.414 110.838 116.302C110.741 116.189 110.65 116.101 110.556 116.009C110.462 115.918 110.357 115.794 110.253 115.692C110.148 115.589 110.045 115.509 109.941 115.418C109.836 115.328 109.724 115.221 109.608 115.126C109.494 115.032 109.376 114.958 109.262 114.875C109.146 114.792 109.031 114.703 108.91 114.625C108.789 114.548 108.652 114.48 108.522 114.398C108.391 114.316 108.285 114.252 108.163 114.189C108.04 114.126 107.887 114.06 107.747 113.996C107.608 113.932 107.499 113.875 107.37 113.823C107.241 113.77 107.066 113.714 106.915 113.662C106.764 113.609 106.665 113.568 106.536 113.529C106.363 113.478 106.186 113.441 106.01 113.399C105.895 113.373 105.784 113.338 105.668 113.315C105.481 113.278 105.29 113.258 105.101 113.231C104.988 113.217 104.881 113.193 104.769 113.183C104.465 113.154 104.162 113.138 103.844 113.138C98.8226 113.142 94.7535 117.061 94.7485 121.898H82.6168V107.299H99.2914C99.6936 107.299 100.079 107.145 100.363 106.871L104.294 103.086C105.944 103.842 107.548 104.687 109.1 105.617C109.278 105.725 109.478 105.796 109.687 105.825L118.998 107.105V108.759Z" fill="white"/>
</g>
<path d="M55.8052 162.148H60.1597V163.795H53.7544V153.842H55.8052V162.148ZM65.5464 163.043C65.0588 163.635 64.3843 163.932 63.5229 163.932C62.73 163.932 62.1239 163.704 61.7046 163.248C61.2899 162.792 61.078 162.125 61.0688 161.245V156.398H63.0444V161.177C63.0444 161.947 63.3953 162.332 64.0972 162.332C64.7671 162.332 65.2274 162.1 65.478 161.635V156.398H67.4604V163.795H65.6011L65.5464 163.043ZM71.0356 163.795H69.0532V156.398H71.0356V163.795ZM68.937 154.484C68.937 154.188 69.035 153.944 69.231 153.753C69.4315 153.562 69.7026 153.466 70.0444 153.466C70.3817 153.466 70.6506 153.562 70.8511 153.753C71.0516 153.944 71.1519 154.188 71.1519 154.484C71.1519 154.785 71.0493 155.031 70.8442 155.223C70.6437 155.414 70.3771 155.51 70.0444 155.51C69.7118 155.51 69.4429 155.414 69.2378 155.223C69.0373 155.031 68.937 154.785 68.937 154.484ZM72.3823 160.042C72.3823 158.907 72.6512 157.994 73.189 157.301C73.7313 156.608 74.4604 156.262 75.3765 156.262C76.1877 156.262 76.8188 156.54 77.27 157.096L77.3521 156.398H79.1431V163.549C79.1431 164.196 78.995 164.759 78.6987 165.237C78.4071 165.716 77.9946 166.08 77.4614 166.331C76.9282 166.582 76.3039 166.707 75.5884 166.707C75.0461 166.707 74.5174 166.598 74.0024 166.379C73.4875 166.165 73.0978 165.887 72.8335 165.545L73.7085 164.342C74.2007 164.893 74.7977 165.169 75.4995 165.169C76.0236 165.169 76.4315 165.028 76.7231 164.745C77.0148 164.467 77.1606 164.071 77.1606 163.556V163.159C76.7049 163.674 76.1056 163.932 75.3628 163.932C74.4741 163.932 73.7541 163.585 73.2026 162.893C72.6558 162.195 72.3823 161.273 72.3823 160.124V160.042ZM74.3579 160.186C74.3579 160.856 74.4924 161.382 74.7612 161.765C75.0301 162.143 75.3993 162.332 75.8687 162.332C76.4702 162.332 76.9009 162.107 77.1606 161.655V158.545C76.8963 158.094 76.4702 157.868 75.8823 157.868C75.4084 157.868 75.0347 158.062 74.7612 158.449C74.4924 158.837 74.3579 159.415 74.3579 160.186ZM82.7524 163.795H80.77V156.398H82.7524V163.795ZM80.6538 154.484C80.6538 154.188 80.7518 153.944 80.9478 153.753C81.1483 153.562 81.4194 153.466 81.7612 153.466C82.0985 153.466 82.3674 153.562 82.5679 153.753C82.7684 153.944 82.8687 154.188 82.8687 154.484C82.8687 154.785 82.7661 155.031 82.561 155.223C82.3605 155.414 82.0939 155.51 81.7612 155.51C81.4285 155.51 81.1597 155.414 80.9546 155.223C80.7541 155.031 80.6538 154.785 80.6538 154.484ZM84.9536 156.898L84.0239 156.357C84.4159 155.742 84.6187 155.107 84.6323 154.45V153.295H86.2046V154.355C86.2046 154.765 86.0907 155.209 85.8628 155.688C85.6349 156.166 85.3319 156.569 84.9536 156.898ZM90.019 161.751C90.019 161.51 89.8983 161.32 89.6567 161.184C89.4198 161.042 89.0369 160.917 88.5083 160.808C86.7492 160.439 85.8696 159.691 85.8696 158.565C85.8696 157.909 86.1408 157.362 86.6831 156.925C87.23 156.483 87.9432 156.262 88.8228 156.262C89.7616 156.262 90.5112 156.483 91.0718 156.925C91.6369 157.367 91.9194 157.941 91.9194 158.648H89.9438C89.9438 158.365 89.8527 158.133 89.6704 157.95C89.4881 157.763 89.2033 157.67 88.8159 157.67C88.4832 157.67 88.2257 157.745 88.0435 157.896C87.8612 158.046 87.77 158.237 87.77 158.47C87.77 158.689 87.8726 158.866 88.0776 159.003C88.2873 159.135 88.6382 159.251 89.1304 159.352C89.6226 159.447 90.0373 159.557 90.3745 159.68C91.4181 160.063 91.9399 160.726 91.9399 161.669C91.9399 162.343 91.6506 162.89 91.0718 163.31C90.493 163.724 89.7456 163.932 88.8296 163.932C88.2098 163.932 87.6584 163.822 87.1753 163.604C86.6968 163.38 86.3208 163.077 86.0474 162.694C85.7739 162.307 85.6372 161.89 85.6372 161.443H87.5103C87.5285 161.794 87.6584 162.063 87.8999 162.25C88.1414 162.437 88.465 162.53 88.8706 162.53C89.2489 162.53 89.5337 162.46 89.7251 162.318C89.9211 162.173 90.019 161.983 90.019 161.751ZM30.0952 177.555C29.995 178.617 29.603 179.446 28.9194 180.043C28.2358 180.635 27.3267 180.932 26.1919 180.932C25.3989 180.932 24.6994 180.745 24.0933 180.371C23.4917 179.993 23.0269 179.457 22.6987 178.765C22.3706 178.072 22.1997 177.268 22.186 176.352V175.422C22.186 174.483 22.3524 173.656 22.6851 172.94C23.0177 172.225 23.494 171.674 24.1138 171.286C24.7381 170.899 25.4582 170.705 26.2739 170.705C27.3722 170.705 28.2563 171.004 28.9263 171.601C29.5962 172.198 29.9858 173.041 30.0952 174.13H28.3726C28.2905 173.414 28.0809 172.899 27.7437 172.585C27.411 172.266 26.9211 172.107 26.2739 172.107C25.522 172.107 24.9432 172.382 24.5376 172.934C24.1366 173.481 23.9315 174.285 23.9224 175.347V176.229C23.9224 177.304 24.1138 178.124 24.4966 178.69C24.884 179.255 25.4491 179.537 26.1919 179.537C26.8709 179.537 27.3813 179.385 27.7231 179.079C28.0649 178.774 28.2814 178.266 28.3726 177.555H30.0952ZM35.9058 180.795C35.8328 180.654 35.769 180.424 35.7144 180.105C35.1857 180.656 34.5386 180.932 33.7729 180.932C33.0301 180.932 32.424 180.72 31.9546 180.296C31.4852 179.872 31.2505 179.348 31.2505 178.724C31.2505 177.935 31.5422 177.331 32.1255 176.912C32.7134 176.488 33.5519 176.276 34.6411 176.276H35.6597V175.791C35.6597 175.408 35.5526 175.103 35.3384 174.875C35.1242 174.643 34.7983 174.526 34.3608 174.526C33.9826 174.526 33.6727 174.622 33.4312 174.814C33.1896 175 33.0688 175.24 33.0688 175.531H31.4077C31.4077 175.126 31.5422 174.747 31.811 174.397C32.0799 174.041 32.4445 173.763 32.9048 173.563C33.3696 173.362 33.8869 173.262 34.4565 173.262C35.3224 173.262 36.0129 173.481 36.5278 173.918C37.0428 174.351 37.3071 174.962 37.3208 175.75V179.086C37.3208 179.751 37.4142 180.282 37.6011 180.679V180.795H35.9058ZM34.0806 179.599C34.4087 179.599 34.7163 179.519 35.0034 179.359C35.2951 179.2 35.5138 178.986 35.6597 178.717V177.322H34.7642C34.1489 177.322 33.6864 177.429 33.3765 177.644C33.0666 177.858 32.9116 178.161 32.9116 178.553C32.9116 178.872 33.0164 179.127 33.2261 179.318C33.4403 179.505 33.7251 179.599 34.0806 179.599ZM43.2065 178.785C43.2065 178.489 43.0835 178.263 42.8374 178.108C42.5959 177.954 42.1925 177.817 41.6274 177.698C41.0623 177.58 40.5907 177.429 40.2124 177.247C39.383 176.846 38.9683 176.265 38.9683 175.504C38.9683 174.866 39.2371 174.333 39.7749 173.904C40.3127 173.476 40.9963 173.262 41.8257 173.262C42.7098 173.262 43.423 173.481 43.9653 173.918C44.5122 174.356 44.7856 174.923 44.7856 175.62H43.1245C43.1245 175.301 43.006 175.037 42.769 174.827C42.5321 174.613 42.2176 174.506 41.8257 174.506C41.4611 174.506 41.1626 174.59 40.9302 174.759C40.7023 174.927 40.5884 175.153 40.5884 175.436C40.5884 175.691 40.6955 175.889 40.9097 176.03C41.1239 176.172 41.5568 176.315 42.2085 176.461C42.8602 176.602 43.3706 176.773 43.7397 176.974C44.1134 177.17 44.3892 177.407 44.5669 177.685C44.7492 177.963 44.8403 178.3 44.8403 178.696C44.8403 179.362 44.5646 179.902 44.0132 180.316C43.4618 180.727 42.7394 180.932 41.8462 180.932C41.2401 180.932 40.7 180.822 40.2261 180.604C39.7521 180.385 39.383 180.084 39.1187 179.701C38.8543 179.318 38.7222 178.906 38.7222 178.464H40.3354C40.3582 178.856 40.5063 179.159 40.7798 179.373C41.0532 179.583 41.4155 179.688 41.8667 179.688C42.3042 179.688 42.6369 179.606 42.8647 179.441C43.0926 179.273 43.2065 179.054 43.2065 178.785ZM50.7124 180.795C50.6395 180.654 50.5757 180.424 50.521 180.105C49.9924 180.656 49.3452 180.932 48.5796 180.932C47.8368 180.932 47.2306 180.72 46.7612 180.296C46.2918 179.872 46.0571 179.348 46.0571 178.724C46.0571 177.935 46.3488 177.331 46.9321 176.912C47.52 176.488 48.3586 176.276 49.4478 176.276H50.4663V175.791C50.4663 175.408 50.3592 175.103 50.145 174.875C49.9308 174.643 49.605 174.526 49.1675 174.526C48.7892 174.526 48.4793 174.622 48.2378 174.814C47.9963 175 47.8755 175.24 47.8755 175.531H46.2144C46.2144 175.126 46.3488 174.747 46.6177 174.397C46.8866 174.041 47.2511 173.763 47.7114 173.563C48.1763 173.362 48.6935 173.262 49.2632 173.262C50.1291 173.262 50.8195 173.481 51.3345 173.918C51.8494 174.351 52.1138 174.962 52.1274 175.75V179.086C52.1274 179.751 52.2209 180.282 52.4077 180.679V180.795H50.7124ZM48.8872 179.599C49.2153 179.599 49.5229 179.519 49.8101 179.359C50.1017 179.2 50.3205 178.986 50.4663 178.717V177.322H49.5708C48.9556 177.322 48.493 177.429 48.1831 177.644C47.8732 177.858 47.7183 178.161 47.7183 178.553C47.7183 178.872 47.8231 179.127 48.0327 179.318C48.2469 179.505 48.5317 179.599 48.8872 179.599ZM57.5142 180.795V170.842H60.4536C61.3332 170.842 62.1125 171.038 62.7915 171.43C63.4751 171.822 64.0037 172.378 64.3774 173.098C64.7511 173.818 64.938 174.643 64.938 175.572V176.071C64.938 177.015 64.7489 177.844 64.3706 178.56C63.9969 179.275 63.4614 179.827 62.7642 180.214C62.0715 180.601 61.2762 180.795 60.3784 180.795H57.5142ZM59.2437 172.236V179.414H60.3716C61.2785 179.414 61.9735 179.132 62.4565 178.566C62.9442 177.997 63.1925 177.181 63.2017 176.119V175.565C63.2017 174.485 62.967 173.661 62.4976 173.091C62.0282 172.521 61.3468 172.236 60.4536 172.236H59.2437ZM69.7573 180.932C68.7046 180.932 67.8501 180.601 67.1938 179.94C66.5422 179.275 66.2163 178.391 66.2163 177.288V177.083C66.2163 176.345 66.3576 175.686 66.6401 175.107C66.9272 174.524 67.3283 174.071 67.8433 173.747C68.3582 173.424 68.9325 173.262 69.5659 173.262C70.5731 173.262 71.3501 173.583 71.897 174.226C72.4484 174.868 72.7241 175.777 72.7241 176.953V177.623H67.8911C67.9412 178.234 68.144 178.717 68.4995 179.072C68.8595 179.428 69.3107 179.606 69.853 179.606C70.6141 179.606 71.2339 179.298 71.7124 178.683L72.6079 179.537C72.3117 179.979 71.9152 180.323 71.4185 180.569C70.9263 180.811 70.3726 180.932 69.7573 180.932ZM69.5591 174.595C69.1034 174.595 68.7342 174.754 68.4517 175.073C68.1737 175.392 67.9959 175.837 67.9185 176.406H71.0835V176.283C71.047 175.727 70.8989 175.308 70.6392 175.025C70.3794 174.738 70.0194 174.595 69.5591 174.595ZM75.7866 180.795H74.1255V170.295H75.7866V180.795ZM79.3687 180.795H77.7075V170.295H79.3687V180.795ZM85.603 180.795C85.5301 180.654 85.4663 180.424 85.4116 180.105C84.883 180.656 84.2358 180.932 83.4702 180.932C82.7274 180.932 82.1213 180.72 81.6519 180.296C81.1825 179.872 80.9478 179.348 80.9478 178.724C80.9478 177.935 81.2394 177.331 81.8228 176.912C82.4106 176.488 83.2492 176.276 84.3384 176.276H85.3569V175.791C85.3569 175.408 85.2498 175.103 85.0356 174.875C84.8215 174.643 84.4956 174.526 84.0581 174.526C83.6799 174.526 83.37 174.622 83.1284 174.814C82.8869 175 82.7661 175.24 82.7661 175.531H81.105C81.105 175.126 81.2394 174.747 81.5083 174.397C81.7772 174.041 82.1418 173.763 82.6021 173.563C83.0669 173.362 83.5841 173.262 84.1538 173.262C85.0197 173.262 85.7101 173.481 86.2251 173.918C86.7401 174.351 87.0044 174.962 87.0181 175.75V179.086C87.0181 179.751 87.1115 180.282 87.2983 180.679V180.795H85.603ZM83.7778 179.599C84.106 179.599 84.4136 179.519 84.7007 179.359C84.9924 179.2 85.2111 178.986 85.3569 178.717V177.322H84.4614C83.8462 177.322 83.3836 177.429 83.0737 177.644C82.7638 177.858 82.6089 178.161 82.6089 178.553C82.6089 178.872 82.7137 179.127 82.9233 179.318C83.1375 179.505 83.4224 179.599 83.7778 179.599ZM99.186 172.236H96.0825V180.795H94.3667V172.236H91.2905V170.842H99.186V172.236ZM102.105 180.795H100.444V173.398H102.105V180.795ZM100.341 171.478C100.341 171.222 100.421 171.01 100.581 170.842C100.745 170.673 100.977 170.589 101.278 170.589C101.579 170.589 101.811 170.673 101.975 170.842C102.139 171.01 102.221 171.222 102.221 171.478C102.221 171.728 102.139 171.938 101.975 172.107C101.811 172.271 101.579 172.353 101.278 172.353C100.977 172.353 100.745 172.271 100.581 172.107C100.421 171.938 100.341 171.728 100.341 171.478ZM107.792 174.916C107.574 174.88 107.348 174.861 107.116 174.861C106.355 174.861 105.842 175.153 105.578 175.736V180.795H103.917V173.398H105.502L105.543 174.226C105.944 173.583 106.5 173.262 107.211 173.262C107.448 173.262 107.644 173.294 107.799 173.357L107.792 174.916ZM111.962 180.932C110.91 180.932 110.055 180.601 109.399 179.94C108.747 179.275 108.421 178.391 108.421 177.288V177.083C108.421 176.345 108.563 175.686 108.845 175.107C109.132 174.524 109.533 174.071 110.048 173.747C110.563 173.424 111.138 173.262 111.771 173.262C112.778 173.262 113.555 173.583 114.102 174.226C114.653 174.868 114.929 175.777 114.929 176.953V177.623H110.096C110.146 178.234 110.349 178.717 110.705 179.072C111.065 179.428 111.516 179.606 112.058 179.606C112.819 179.606 113.439 179.298 113.917 178.683L114.813 179.537C114.517 179.979 114.12 180.323 113.624 180.569C113.131 180.811 112.578 180.932 111.962 180.932ZM111.764 174.595C111.308 174.595 110.939 174.754 110.657 175.073C110.379 175.392 110.201 175.837 110.124 176.406H113.289V176.283C113.252 175.727 113.104 175.308 112.844 175.025C112.584 174.738 112.224 174.595 111.764 174.595ZM120.371 178.785C120.371 178.489 120.248 178.263 120.001 178.108C119.76 177.954 119.357 177.817 118.792 177.698C118.226 177.58 117.755 177.429 117.376 177.247C116.547 176.846 116.132 176.265 116.132 175.504C116.132 174.866 116.401 174.333 116.939 173.904C117.477 173.476 118.16 173.262 118.99 173.262C119.874 173.262 120.587 173.481 121.129 173.918C121.676 174.356 121.95 174.923 121.95 175.62H120.289C120.289 175.301 120.17 175.037 119.933 174.827C119.696 174.613 119.382 174.506 118.99 174.506C118.625 174.506 118.327 174.59 118.094 174.759C117.866 174.927 117.752 175.153 117.752 175.436C117.752 175.691 117.86 175.889 118.074 176.03C118.288 176.172 118.721 176.315 119.373 176.461C120.024 176.602 120.535 176.773 120.904 176.974C121.278 177.17 121.553 177.407 121.731 177.685C121.913 177.963 122.004 178.3 122.004 178.696C122.004 179.362 121.729 179.902 121.177 180.316C120.626 180.727 119.903 180.932 119.01 180.932C118.404 180.932 117.864 180.822 117.39 180.604C116.916 180.385 116.547 180.084 116.283 179.701C116.018 179.318 115.886 178.906 115.886 178.464H117.5C117.522 178.856 117.67 179.159 117.944 179.373C118.217 179.583 118.58 179.688 119.031 179.688C119.468 179.688 119.801 179.606 120.029 179.441C120.257 179.273 120.371 179.054 120.371 178.785Z" fill="white"/>
<defs>
<clipPath id="clip0">
<rect width="90.9481" height="87.5919" fill="white" transform="translate(31.2334 69.3142)"/>
</clipPath>
</defs>
</svg>
