<svg width="100%" height="auto" viewBox="0 0 44 41" fill="none" xmlns="http://www.w3.org/2000/svg">
<g clip-path="url(#clip0)">
<path d="M17.3529 2.91144C16.163 1.84384 14.5809 1.25586 12.8981 1.25586C11.2154 1.25586 9.63329 1.84384 8.44336 2.91144C7.25347 3.97909 6.59814 5.39857 6.59814 6.90842C6.59814 8.41827 7.25347 9.83774 8.44336 10.9054C9.63329 11.973 11.2154 12.561 12.8981 12.561C14.5809 12.561 16.163 11.973 17.3529 10.9054C18.5428 9.83774 19.1981 8.41827 19.1981 6.90842C19.1981 5.39857 18.5428 3.97909 17.3529 2.91144ZM16.8309 10.437C15.7804 11.3795 14.3837 11.8986 12.8981 11.8986C11.4126 11.8986 10.0159 11.3795 8.96542 10.437C7.91494 9.49446 7.33643 8.24134 7.33643 6.90842C7.33643 5.5755 7.91494 4.32237 8.96542 3.37985C10.0159 2.43733 11.4126 1.91827 12.8981 1.91827C14.3837 1.91827 15.7804 2.43733 16.8309 3.37985C17.8813 4.32237 18.4599 5.5755 18.4599 6.90842C18.4599 8.24134 17.8813 9.49446 16.8309 10.437Z" fill="#2BC6E6"/>
<path d="M12.8981 2.58032C10.2385 2.58032 8.07471 4.52173 8.07471 6.90806C8.07471 9.29439 10.2385 11.2358 12.8981 11.2358C15.5578 11.2358 17.7216 9.29439 17.7216 6.90806C17.7216 4.52173 15.5578 2.58032 12.8981 2.58032ZM14.4348 6.51033C14.3646 6.29251 14.2386 6.09584 14.0713 5.93377L16.2585 4.82635C16.3982 5.00737 16.5205 5.20004 16.6226 5.40258L14.4348 6.51033ZM9.17376 5.40236C9.27589 5.19982 9.39817 5.00717 9.53791 4.82615L11.725 5.9337C11.5577 6.09577 11.4317 6.29242 11.3615 6.51024L9.17376 5.40236ZM12.0368 6.90806C12.0368 6.48193 12.4232 6.13525 12.8981 6.13525C13.3731 6.13525 13.7595 6.48193 13.7595 6.90806C13.7595 7.33419 13.3731 7.68087 12.8981 7.68087C12.4232 7.68087 12.0368 7.33419 12.0368 6.90806ZM15.7766 4.30974L13.359 5.53381C13.213 5.49433 13.0583 5.47284 12.8981 5.47284C12.738 5.47284 12.5834 5.49433 12.4374 5.53381L10.0199 4.30959C10.7589 3.65058 11.7764 3.24273 12.8981 3.24273C14.02 3.24273 15.0376 3.65064 15.7766 4.30974ZM8.81299 6.90806C8.81299 6.60876 8.85347 6.31783 8.92927 6.03918L11.3484 7.26424C11.4234 7.52664 11.5794 7.76003 11.7907 7.94224V10.4364C10.0745 10.0023 8.81299 8.58491 8.81299 6.90806ZM12.529 10.5583V8.30429C12.6476 8.32952 12.7711 8.34328 12.8981 8.34328C13.0252 8.34328 13.1487 8.32952 13.2673 8.30429V10.5583C13.1456 10.5681 13.0226 10.5734 12.8981 10.5734C12.7737 10.5734 12.6506 10.5681 12.529 10.5583ZM14.0056 10.4365V7.94224C14.2168 7.76005 14.3728 7.52671 14.4478 7.26435L16.8671 6.03942C16.9428 6.31799 16.9833 6.60885 16.9833 6.90806C16.9833 8.58491 15.7218 10.0023 14.0056 10.4365Z" fill="#2BC6E6"/>
</g>
<g clip-path="url(#clip1)">
<path d="M36.8999 4.48616H36.0534C35.9835 4.30779 35.903 4.13288 35.8124 3.96218L36.4124 3.42384C36.6076 3.24867 36.6076 2.96467 36.4124 2.7895L34.2889 0.887812C34.0936 0.712668 33.7771 0.712668 33.5819 0.887812L32.9819 1.42615C32.7923 1.34445 32.598 1.27167 32.3999 1.20813V0.448624C32.3999 0.200852 32.176 0 31.8999 0H28.8999C28.6237 0 28.3999 0.200852 28.3999 0.448624V1.20813C28.201 1.27101 28.0059 1.34319 27.8154 1.42436L27.2154 0.886024C27.0201 0.710906 26.7036 0.710906 26.5084 0.886024L24.3894 2.79129C24.1942 2.96646 24.1942 3.25046 24.3894 3.42563L24.9894 3.96396C24.8981 4.13403 24.817 4.30836 24.7464 4.48616H23.8999C23.6238 4.48616 23.3999 4.68701 23.3999 4.93476V7.62645C23.3999 7.87423 23.6238 8.07508 23.8999 8.07508H24.7464C24.8163 8.25345 24.8968 8.42836 24.9874 8.59906L24.3874 9.1374C24.1922 9.3126 24.1922 9.59657 24.3874 9.77174L26.5089 11.6752C26.7042 11.8503 27.0207 11.8503 27.2159 11.6752L27.8159 11.1369C28.0062 11.218 28.2012 11.2902 28.3999 11.3531V12.1126C28.3999 12.3604 28.6238 12.5612 28.8999 12.5612H31.8999C32.1761 12.5612 32.3999 12.3604 32.3999 12.1126V11.3531C32.5988 11.2902 32.7939 11.218 32.9844 11.1369L33.5844 11.6752C33.7797 11.8503 34.0962 11.8503 34.2914 11.6752L36.4129 9.77174C36.6081 9.59657 36.6081 9.31257 36.4129 9.1374L35.8129 8.59906C35.9034 8.42836 35.9837 8.25345 36.0534 8.07508H36.8999C37.176 8.07508 37.3999 7.87423 37.3999 7.62645V4.93476C37.3999 4.68701 37.176 4.48616 36.8999 4.48616ZM36.3999 7.17785H35.6874C35.4638 7.17785 35.2674 7.31102 35.2064 7.50399C35.1014 7.83898 34.9531 8.16177 34.7644 8.46582C34.654 8.64159 34.688 8.86187 34.8474 9.00416L35.3474 9.45502L33.9354 10.7219L33.4329 10.2733C33.2743 10.1302 33.0288 10.0997 32.8329 10.1988C32.4941 10.3679 32.1345 10.501 31.7614 10.5954C31.5461 10.65 31.3975 10.8262 31.3974 11.0269V11.664H29.3999V11.0247C29.3998 10.824 29.2512 10.6477 29.0359 10.5932C28.6628 10.4988 28.3032 10.3657 27.9644 10.1966C27.7685 10.0975 27.523 10.128 27.3644 10.271L26.8644 10.7197L25.4499 9.45278L25.9499 9.00192C26.1093 8.85964 26.1433 8.63936 26.0329 8.46358C25.8442 8.15956 25.6959 7.83674 25.5909 7.50175C25.5292 7.31047 25.3343 7.17856 25.1124 7.17785H24.3999V5.38338H25.1124C25.336 5.38338 25.5324 5.25022 25.5934 5.05725C25.6984 4.72226 25.8467 4.39947 26.0354 4.09542C26.1458 3.91965 26.1118 3.69937 25.9524 3.55708L25.4524 3.10846L26.8644 1.83931L27.3644 2.28794C27.523 2.43099 27.7685 2.46148 27.9644 2.36241C28.3031 2.19328 28.6628 2.0602 29.0359 1.96583C29.2503 1.91147 29.3987 1.73638 29.3999 1.5365V0.897222H31.3999V1.5365C31.4 1.73722 31.5486 1.91347 31.7639 1.96806C32.137 2.06243 32.4966 2.19552 32.8354 2.36464C33.0313 2.46371 33.2768 2.43322 33.4354 2.29017L33.9379 1.84155L35.3499 3.10843L34.8499 3.55706C34.6905 3.69934 34.6565 3.91962 34.7669 4.09539C34.9556 4.39942 35.1039 4.72224 35.2089 5.05723C35.2699 5.25019 35.4663 5.38336 35.6899 5.38336H36.3999V7.17785H36.3999Z" fill="#2BC6E6"/>
<path d="M30.3999 3.13953C28.4669 3.13953 26.8999 4.54549 26.8999 6.27984C26.8999 8.0142 28.4669 9.42013 30.3999 9.42013C32.3329 9.42013 33.8999 8.01417 33.8999 6.27982C33.8977 4.5463 32.332 3.1415 30.3999 3.13953ZM30.3999 8.52291C29.0192 8.52291 27.8999 7.51865 27.8999 6.27984C27.8999 5.04103 29.0192 4.03677 30.3999 4.03677C31.7806 4.03677 32.8999 5.04103 32.8999 6.27984C32.8983 7.51802 31.7799 8.52141 30.3999 8.52291Z" fill="#2BC6E6"/>
</g>
<g clip-path="url(#clip2)">
<path d="M17.5718 28.148C17.8188 28.3695 18.226 28.3634 18.4813 28.1344C18.7367 27.9054 18.7434 27.5401 18.4965 27.3186C18.2495 27.0971 17.8423 27.1032 17.587 27.3322C17.3317 27.5612 17.3249 27.9265 17.5718 28.148Z" fill="#2BC6E6"/>
<path d="M13.3272 28.2115C13.5742 28.433 13.9814 28.4269 14.2367 28.1979C14.492 27.9688 14.4988 27.6036 14.2518 27.3821C14.0049 27.1605 13.5977 27.1666 13.3424 27.3957C13.087 27.6247 13.0802 27.99 13.3272 28.2115Z" fill="#2BC6E6"/>
<path d="M39.2042 21.7062L39.2686 18.2445C39.2714 18.0916 39.2064 17.9458 39.0878 17.8394C38.9692 17.733 38.8067 17.6747 38.6362 17.6772L36.385 17.7108L36.3877 17.5666C36.3905 17.4136 36.3255 17.2679 36.2068 17.1615C36.0882 17.0551 35.9257 16.9968 35.7552 16.9993L26.0753 17.144C25.72 17.1493 25.4273 17.4119 25.4213 17.7306L25.4187 17.8748L20.5948 17.9469C20.4242 17.9495 20.2595 18.0127 20.1368 18.1227C20.0142 18.2327 19.9437 18.3806 19.9409 18.5335L19.9194 19.6874L16.4141 19.7398C16.0588 19.7451 15.7661 20.0078 15.7601 20.3264C15.7572 20.4858 15.8265 20.6289 15.9409 20.7316C16.0554 20.8342 16.2149 20.8964 16.3926 20.8938L19.8979 20.8414L19.8765 21.9953C19.8765 21.9954 19.8765 21.9954 19.8765 21.9955C19.8496 23.4269 18.5297 24.6108 16.934 24.6348L15.0044 24.6635C13.4084 24.6874 12.1316 23.5422 12.1583 22.1106L12.1797 20.9567L13.0963 20.943C13.4515 20.9377 13.7443 20.6751 13.7503 20.3564C13.7561 20.0377 13.4731 19.7838 13.1177 19.789L12.2012 19.8027L12.2227 18.6488C12.2255 18.4957 12.1605 18.35 12.0418 18.2436C11.9232 18.1372 11.7607 18.0789 11.5902 18.0814L8.69588 18.1248C8.34064 18.1301 8.04788 18.3927 8.04196 18.7113L7.90207 26.2404C7.8793 27.4657 8.38977 28.6095 9.33946 29.4614C10.2891 30.3132 11.5643 30.7712 12.9302 30.7507L18.7832 30.6632C21.6027 30.621 23.9347 28.5292 23.9818 26.0001L24.0466 22.5096L25.333 22.4904L25.3304 22.6346C25.3276 22.7876 25.3925 22.9333 25.5112 23.0397C25.6298 23.1461 25.7923 23.2044 25.9628 23.2019L35.6428 23.0572C35.8133 23.0547 35.9781 22.9914 36.1007 22.8814C36.2233 22.7714 36.2938 22.6236 36.2967 22.4706L36.2993 22.3264L38.5504 22.2927C38.9056 22.2874 39.1983 22.0249 39.2042 21.7062ZM21.1737 21.399L21.2165 19.0912L25.3972 19.0287L25.3544 21.3365L21.1737 21.399ZM22.6954 26.0194C22.6601 27.9122 20.9148 29.4778 18.8046 29.5094L12.9516 29.5969C11.9294 29.6122 10.975 29.2695 10.2642 28.6319C9.55342 27.9944 9.17142 27.1383 9.18846 26.2214L9.31759 19.2692L10.9256 19.2451L10.8719 22.1299C10.8528 23.1639 11.304 24.0943 12.0486 24.762C12.793 25.4297 13.8305 25.8348 14.983 25.8175L16.9126 25.7887C18.9991 25.7575 20.7592 24.3533 21.1028 22.5538L22.7602 22.529L22.6954 26.0194ZM26.6273 22.0384L26.697 18.2883L35.0906 18.1628L35.0209 21.9129L26.6273 22.0384ZM36.3207 21.1725L36.3635 18.8648L37.9715 18.8407L37.9286 21.1485L36.3207 21.1725Z" fill="#2BC6E6"/>
</g>
<defs>
<clipPath id="clip0">
<rect width="12.6" height="11.3051" fill="white" transform="translate(6.59814 1.25586)"/>
</clipPath>
<clipPath id="clip1">
<rect width="14" height="12.5612" fill="white" transform="translate(23.3999)"/>
</clipPath>
<clipPath id="clip2">
<rect width="27.7435" height="28.684" fill="white" transform="matrix(0.7444 0.667734 -0.7444 0.667734 22.3501 2.82556)"/>
</clipPath>
</defs>
</svg>
