<svg width="100%" height="auto" viewBox="0 0 42 41" fill="none" xmlns="http://www.w3.org/2000/svg">
<g clip-path="url(#clip0)">
<path d="M37.0843 24.5714L32.3379 17.763L28.5196 19.4638C28.3883 18.211 28.1822 17.0099 27.909 15.8849L30.1731 10.4699L36.3147 7.83875L35.3158 5.66965L28.2635 8.69088L26.7251 12.3703C26.153 11.1038 25.4709 10.0336 24.6995 9.22257C24.7312 9.03355 24.7483 8.83979 24.7483 8.64238C24.7483 7.81129 24.4552 7.04524 23.9646 6.43396L27.8796 1.42979L25.9152 0L21.8995 5.13297C21.6111 5.06421 21.31 5.02703 21.0001 5.02703C20.69 5.02703 20.389 5.06421 20.1006 5.13297L16.085 0L14.1207 1.42964L18.0357 6.43388C17.545 7.04517 17.2521 7.81113 17.2521 8.64222C17.2521 8.83979 17.2692 9.03347 17.301 9.22241C16.5296 10.0334 15.8475 11.1035 15.2754 12.37L13.7371 8.6908L6.68468 5.66965L5.68579 7.83875L11.8275 10.4699L14.0914 15.8846C13.8182 17.0097 13.612 18.2109 13.4807 19.4637L9.66266 17.7629L4.91617 24.5713L0.958008 26.2483L1.94755 28.4213L6.55967 26.4674L10.5346 20.7658L13.3208 22.0069C13.3156 22.2422 13.3126 22.4786 13.3126 22.7161C13.3126 23.5439 13.3446 24.3619 13.4066 25.1639L9.25956 28.0383V40.5099H11.7203V29.2555L13.7389 27.8564C14.0757 29.8141 14.6059 31.6154 15.309 33.148C16.7377 36.2618 18.7588 37.9767 21.0001 37.9767C23.2413 37.9767 25.2625 36.2619 26.6912 33.148C27.3943 31.6153 27.9245 29.8141 28.2613 27.8564L30.2798 29.2554V40.5099H32.7406V28.0383L28.5936 25.164C28.6556 24.3619 28.6876 23.5439 28.6876 22.7161C28.6876 22.4786 28.6847 22.2422 28.6795 22.0069L31.4658 20.7658L35.4408 26.4674L40.0529 28.4213L41.0424 26.2483L37.0843 24.5714ZM21.0002 7.4005C21.71 7.4005 22.2876 7.95759 22.2876 8.64222C22.2876 9.32685 21.7101 9.88395 21.0002 9.88395C20.2904 9.88395 19.7128 9.32685 19.7128 8.64222C19.7128 7.95759 20.2904 7.4005 21.0002 7.4005ZM16.8786 15.0157C17.3467 13.5556 17.9444 12.3255 18.6119 11.4263C19.2609 11.9451 20.0934 12.2574 21.0002 12.2574C21.9069 12.2574 22.7394 11.9451 23.3883 11.4264C24.0558 12.3256 24.6536 13.5556 25.1217 15.0157C25.1503 15.1051 25.1774 15.196 25.205 15.2866C23.9428 16.0335 22.5049 16.4262 21.0003 16.4262C19.4956 16.4262 18.0577 16.0334 16.7953 15.2865C16.8229 15.196 16.8501 15.105 16.8786 15.0157ZM24.4409 32.1876C23.4596 34.3263 22.1733 35.6032 21.0002 35.6032C19.827 35.6032 18.5407 34.3263 17.5595 32.1876C16.4077 29.6773 15.7735 26.3136 15.7735 22.7161C15.7735 20.9709 15.924 19.2728 16.2147 17.6924C17.6856 18.4194 19.3108 18.7996 21.0003 18.7996C22.6899 18.7996 24.3151 18.4194 25.786 17.6924C26.0766 19.2728 26.2272 20.9708 26.2272 22.7161C26.227 26.3136 25.5927 29.6772 24.4409 32.1876Z" fill="#2BC6E6"/>
</g>
<defs>
<clipPath id="clip0">
<rect width="42" height="40.51" fill="white"/>
</clipPath>
</defs>
</svg>
