<svg width="100%" height="auto" viewBox="0 0 42 41" fill="none" xmlns="http://www.w3.org/2000/svg">
<g clip-path="url(#clip0)">
<path d="M27.8972 11.5503C27.5527 11.5503 27.2734 11.8197 27.2734 12.1519V27.9754C27.2734 28.3077 27.5527 28.5771 27.8972 28.5771C28.2417 28.5771 28.521 28.3077 28.521 27.9754V12.1519C28.521 11.8196 28.2418 11.5503 27.8972 11.5503Z" fill="#FFD83B"/>
<path d="M41.6479 27.583L39.8752 25.5962L40.9763 23.1997C41.0739 22.9873 41.036 22.7397 40.8788 22.5635L39.1061 20.5766L40.2071 18.1804C40.3048 17.9679 40.2669 17.7203 40.1097 17.5442L38.337 15.5576L39.4381 13.161C39.5356 12.9486 39.4977 12.7009 39.3406 12.5248L37.5679 10.5378L38.6689 8.14108C38.7664 7.92864 38.7285 7.681 38.5714 7.50495L36.7987 5.51798L37.8997 3.12101C37.9972 2.90857 37.9593 2.66092 37.8022 2.48488L35.7716 0.209038C35.653 0.076431 35.4803 0 35.2986 0H27.8972C27.5527 0 27.2734 0.269407 27.2734 0.601637V10.1463C27.2734 10.4786 27.5527 10.748 27.8972 10.748C28.2417 10.748 28.521 10.4786 28.521 10.1463V1.20327H35.0125L36.5987 2.98136L35.4976 5.37841C35.4001 5.59085 35.438 5.8385 35.5952 6.01455L37.3679 8.00151L36.2669 10.3983C36.1693 10.6107 36.2072 10.8583 36.3644 11.0344L38.1371 13.0213L37.036 15.4179C36.9384 15.6303 36.9763 15.8779 37.1335 16.0541L38.9062 18.0406L37.8052 20.4368C37.7076 20.6493 37.7455 20.8969 37.9026 21.073L39.6753 23.0599L38.5742 25.4565C38.4767 25.6689 38.5146 25.9166 38.6718 26.0927L40.7018 28.3678C40.8252 28.5061 40.9995 28.5769 41.1749 28.5769C41.3189 28.5769 41.4638 28.529 41.5816 28.4313C41.8433 28.2147 41.8726 27.8348 41.6479 27.583Z" fill="#FFD83B"/>
<path d="M41.1619 28.9147H26.6496C26.3051 28.9147 26.0259 29.1841 26.0259 29.5163V36.206C26.0259 38.5792 28.0277 40.51 30.4882 40.51H37.3233C39.7838 40.51 41.7856 38.5792 41.7856 36.206V29.5163C41.7856 29.1841 41.5064 28.9147 41.1619 28.9147ZM40.5381 36.206C40.5381 37.9157 39.096 39.3068 37.3233 39.3068H30.4882C28.7156 39.3068 27.2734 37.9158 27.2734 36.206V30.1179H40.5381V36.206Z" fill="#FFD83B"/>
<path d="M38.4173 32.7651H29.3943C29.0497 32.7651 28.7705 33.0345 28.7705 33.3668V36.206C28.7705 37.1195 29.5411 37.8628 30.4882 37.8628H37.3233C38.2705 37.8628 39.0411 37.1196 39.0411 36.206V33.3668C39.0411 33.0345 38.7619 32.7651 38.4173 32.7651ZM37.7936 36.2059C37.7936 36.456 37.5827 36.6594 37.3234 36.6594H30.4883C30.229 36.6594 30.0181 36.456 30.0181 36.2059V33.9683H37.7937V36.2059H37.7936Z" fill="#FFD83B"/>
<path d="M4.15574 0.130493H1.81129C0.922891 0.130493 0.200195 0.82755 0.200195 1.68443V7.51328C0.200195 8.37008 0.922808 9.06722 1.81129 9.06722H4.15574C5.04414 9.06722 5.76684 8.37016 5.76684 7.51328V1.68443C5.76684 0.82755 5.04414 0.130493 4.15574 0.130493ZM4.15574 7.86387H1.81129C1.61089 7.86387 1.44773 7.70657 1.44773 7.5132V1.68435C1.44773 1.49106 1.6108 1.33369 1.81129 1.33369H4.15574C4.35614 1.33369 4.5193 1.49098 4.5193 1.68435V7.5132H4.51939C4.5193 7.70657 4.35623 7.86387 4.15574 7.86387Z" fill="#FFD83B"/>
<path d="M18.236 0.130493H9.79633C7.95727 0.130493 6.46094 1.57366 6.46094 3.34764V5.85C6.46094 7.62397 7.95719 9.06714 9.79633 9.06714H17.8526C18.1972 9.06714 18.4764 8.79773 18.4764 8.4655V5.55147C20.234 5.77135 21.6949 7.00517 22.1294 8.702C22.1982 8.97061 22.4481 9.15939 22.735 9.15939H24.7399C25.0844 9.15939 25.3637 8.88999 25.3637 8.55776V7.0054C25.3638 3.21447 22.1663 0.130493 18.236 0.130493ZM24.1162 7.95612H23.2013C22.4334 5.78907 20.3239 4.31307 17.9119 4.31307H17.8526C17.5081 4.31307 17.2289 4.58248 17.2289 4.91471V7.86387H9.79633C8.64502 7.86387 7.70847 6.96046 7.70847 5.85V3.34756C7.70847 2.23709 8.64511 1.33369 9.79633 1.33369H18.236C21.4783 1.33369 24.1162 3.87798 24.1162 7.00532V7.95612Z" fill="#FFD83B"/>
<path d="M15.5997 31.6036C15.9442 31.6036 16.2235 31.3342 16.2235 31.0019V10.0701C16.2235 9.73791 15.9441 9.46851 15.5997 9.46851C15.2552 9.46851 14.9759 9.73791 14.9759 10.0701V24.6871H11.1875V10.0701C11.1875 9.73791 10.9082 9.46851 10.5637 9.46851C10.2192 9.46851 9.93994 9.73791 9.93994 10.0701V39.9085C9.93994 40.2408 10.2192 40.5102 10.5637 40.5102H15.5997C15.9442 40.5102 16.2235 40.2408 16.2235 39.9085V33.0075C16.2235 32.6753 15.9442 32.4059 15.5997 32.4059C15.2552 32.4059 14.9759 32.6753 14.9759 33.0075V39.307H11.1875V25.8904H14.9759V31.002C14.9759 31.3342 15.2551 31.6036 15.5997 31.6036Z" fill="#FFD83B"/>
</g>
<defs>
<clipPath id="clip0">
<rect width="42" height="40.51" fill="white"/>
</clipPath>
</defs>
</svg>
