<svg width="100%" height="auto" viewBox="0 0 42 41" fill="none" xmlns="http://www.w3.org/2000/svg">
<g clip-path="url(#clip0)">
<path d="M25.9199 0.00012207C26.5995 0.00012207 27.1504 0.531499 27.1504 1.18694V16.2991C27.1504 16.5172 27.3344 16.6947 27.5605 16.6947H30.8418V1.18694C30.8418 0.531499 31.3927 0.00012207 32.0723 0.00012207C32.7518 0.00012207 33.3027 0.531499 33.3027 1.18694V16.6947H36.584C36.8101 16.6947 36.9941 16.5172 36.9941 16.2991V1.18694C36.9941 0.531499 37.5451 0.00012207 38.2246 0.00012207C38.9042 0.00012207 39.4551 0.531499 39.4551 1.18694V16.2991C39.4551 17.826 38.1671 19.0683 36.584 19.0683H33.3027V21.5211H34.5332C35.2128 21.5211 35.7637 22.0524 35.7637 22.7079V34.216C35.7903 34.3269 37.1686 36.3154 35.7212 38.5576C34.0422 41.1585 30.1121 41.1637 28.4302 38.5564C27.0101 36.3546 28.37 34.2951 28.3891 34.2155V22.7079C28.3891 22.0524 28.94 21.5211 29.6195 21.5211H30.8417V19.0683H27.5605C25.9773 19.0683 24.6894 17.826 24.6894 16.2991V1.18694C24.6895 0.531499 25.2404 0.00012207 25.9199 0.00012207Z" fill="#5DD482"/>
<path d="M10.4677 0.207308C10.8856 -0.0684287 11.4357 -0.0691408 11.8543 0.205409C16.8094 3.45483 19.7676 8.84512 19.7676 14.6245V21.0561C19.7676 22.5831 18.4796 23.8253 16.8965 23.8253H12.3848V15.5103C12.3848 14.8548 11.8338 14.3235 11.1543 14.3235C10.4747 14.3235 9.92382 14.8548 9.92382 15.5103V23.8254H5.41629C3.83317 23.8254 2.54519 22.5831 2.54519 21.0562V14.6326C2.54519 8.84781 5.50784 3.45468 10.4677 0.207308Z" fill="#5DD482"/>
<path d="M12.3843 26.2683H13.619C14.2985 26.2683 14.8494 26.7997 14.8494 27.4551V34.2216C14.8762 34.3338 16.2511 36.3206 14.804 38.56C13.1219 41.163 9.19421 41.1585 7.51651 38.5565C6.09974 36.3592 7.45662 34.2959 7.47475 34.2203V27.4551C7.47475 26.7997 8.02567 26.2683 8.70522 26.2683H9.92339V23.8254H12.3843V26.2683Z" fill="#5DD482"/>
</g>
<defs>
<clipPath id="clip0">
<rect width="42" height="40.51" fill="white" transform="matrix(-1 0 0 1 42 0)"/>
</clipPath>
</defs>
</svg>
