<svg width="100%" height="auto" viewBox="0 0 42 41" fill="none" xmlns="http://www.w3.org/2000/svg">
<path d="M32.0222 7.41084L30.7617 8.94246H29.4735L28.2129 7.41084L30.1176 6.62859L30.1199 6.62756L32.0222 7.41084Z" fill="#FA5747"/>
<path d="M32.0228 7.41084L30.7623 8.94246H30.1182V6.62859L30.1205 6.62756L32.0228 7.41084Z" fill="#FA5747"/>
<path d="M32.0222 7.41082H28.2129L28.996 5.84448H31.2392L32.0222 7.41082Z" fill="#FA5747"/>
<path d="M32.6339 9.67905L30.1176 8.46985L27.5988 9.68275C27.1018 10.3908 26.8013 11.3105 26.8013 12.3142C26.8013 13.32 27.103 14.2416 27.602 14.9502L30.1176 16.1586L32.6332 14.9502C33.1323 14.2416 33.434 13.32 33.434 12.3142C33.434 11.3089 33.1325 10.3877 32.6339 9.67905V9.67905ZM31.8791 14.0293V14.6457L30.1176 15.272L28.3561 14.6457V14.0293C28.0481 13.5586 27.8638 12.9623 27.8638 12.3142C27.8638 11.6684 28.0469 11.0738 28.3531 10.6039V9.98747L30.1176 9.35646L31.8796 9.98377V10.6002C32.1874 11.0707 32.3714 11.6668 32.3714 12.3142C32.3714 12.9623 32.1872 13.5586 31.8791 14.0293V14.0293Z" fill="#FA5747"/>
<path d="M33.4345 12.3142C33.4345 13.32 33.1328 14.2416 32.6338 14.9502L30.1182 16.1586V15.272L31.8797 14.6457V14.0293C32.1877 13.5586 32.372 12.9623 32.372 12.3142C32.372 11.6668 32.1879 11.0707 31.8802 10.6002V9.98377L30.1182 9.35646V8.46985L32.6345 9.67905C33.133 10.3877 33.4345 11.3089 33.4345 12.3142V12.3142Z" fill="#FA5747"/>
<path d="M32.6333 14.9505C32.0247 15.8153 31.1227 16.364 30.1177 16.364C29.1127 16.364 28.2106 15.8153 27.6021 14.9505L28.3562 14.0298C28.7694 14.6615 29.4056 15.0668 30.1177 15.0668C30.8297 15.0668 31.4659 14.6615 31.8792 14.0298L32.6333 14.9505Z" fill="#FA5747"/>
<path d="M32.6342 9.67873L31.8799 10.5996C31.4669 9.96735 30.8305 9.56164 30.1179 9.56164C29.404 9.56164 28.7665 9.96899 28.3534 10.6033L27.5991 9.68243C28.2079 8.81493 29.1113 8.2644 30.1179 8.2644C31.1233 8.2644 32.0255 8.81329 32.6342 9.67873V9.67873Z" fill="#FA5747"/>
<path d="M32.0228 7.41082H30.1182V5.84448H31.2398L32.0228 7.41082Z" fill="#FA5747"/>
<path d="M31.8797 14.0298L32.6338 14.9505C32.0252 15.8153 31.1232 16.364 30.1182 16.364V15.0668C30.8302 15.0668 31.4664 14.6615 31.8797 14.0298Z" fill="#FA5747"/>
<path d="M30.1182 9.56164V8.2644C31.1235 8.2644 32.0257 8.81329 32.6345 9.67873L31.8802 10.5996C31.4671 9.96735 30.8307 9.56164 30.1182 9.56164V9.56164Z" fill="#FA5747"/>
<path d="M11.2245 8.14425e-05L6.9623 8.16603e-05C6.82661 -5.08777e-06 6.68726 0.0662329 6.58535 0.190683L0.156043 8.04201C0.0566911 8.16338 -3.60233e-05 8.33246 -4.95909e-07 8.50216L-3.01264e-07 13.7073C-3.58157e-05 13.8846 0.0617353 14.0523 0.156044 14.1675L6.58535 22.0188C6.68815 22.1443 6.82668 22.2094 6.9623 22.2094L11.2245 22.2093C11.3671 22.2094 11.5047 22.1369 11.6014 22.0187L18.0307 14.1674C18.1322 14.0435 18.1868 13.8725 18.1868 13.7074L18.1868 8.50207C18.1868 8.3342 18.1312 8.16472 18.0307 8.04201L11.6014 0.190683C11.5046 0.0723922 11.3664 -5.31973e-06 11.2245 8.14425e-05ZM16.6653 8.21495L14.5663 9.05999L10.7677 4.42129L11.4597 1.85798L16.6653 8.21495ZM16.6653 13.9945L11.4598 20.3514L10.7678 17.7881L14.5663 13.1494L16.6653 13.9945ZM1.52144 13.9945L3.62048 13.1494L7.419 17.7881L6.72701 20.3514L1.52144 13.9945ZM7.6988 20.908L8.41312 18.262L9.77365 18.262L10.488 20.908L7.6988 20.908ZM13.8887 12.1365L9.93833 16.9607L8.24845 16.9607L4.29805 12.1365L4.29805 10.0729L8.24845 5.24876L9.93833 5.24876L13.8887 10.0729L13.8887 12.1365ZM1.52144 8.21495L6.72701 1.85803L7.419 4.42133L3.62048 9.05999L1.52144 8.21495ZM10.488 1.30141L9.77365 3.94743L8.41312 3.94743L7.6988 1.30141L10.488 1.30141ZM1.06563 9.40167L3.23241 10.274L3.23241 11.9354L1.06563 12.8077L1.06563 9.40167ZM17.1211 12.8078L14.9544 11.9355L14.9544 10.274L17.1211 9.40172L17.1211 12.8078Z" fill="#FA5747"/>
<path d="M1.39483 34.5052C1.36185 34.3765 1.25734 34.2622 1.10427 34.1875C0.951199 34.1129 0.76212 34.0839 0.578624 34.107C0.395128 34.1302 0.232247 34.2035 0.125813 34.3109C0.0193793 34.4183 -0.0218895 34.5509 0.0110856 34.6796C0.424065 36.2929 1.48902 37.7627 3.00896 38.8183C4.57969 39.9092 6.57112 40.51 8.61642 40.51C10.499 40.51 14.673 40.0262 18.7667 39.3335C21.6194 38.8507 26.8071 37.8597 30.5135 36.5041C30.6932 36.6614 30.9168 36.7913 31.1706 36.8858C31.4245 36.9803 31.7032 37.0374 31.9896 37.0535C32.2761 37.0697 32.5642 37.0446 32.8363 36.9798C33.1084 36.9149 33.3587 36.8117 33.5719 36.6766C33.785 36.5414 33.9565 36.377 34.0758 36.1936C34.1951 36.0102 34.2597 35.8117 34.2656 35.6101C34.2715 35.4086 34.2186 35.2083 34.1102 35.0216C34.0017 34.835 33.8399 34.6658 33.6349 34.5246C33.9358 34.5908 34.2541 34.6087 34.5662 34.5771C34.8783 34.5455 35.1763 34.4651 35.4383 34.3418C35.8242 34.8127 36.4209 35.181 37.1358 35.3896C37.8508 35.5981 38.6438 35.6352 39.3919 35.4951C40.1399 35.355 40.8011 35.0455 41.2727 34.6148C41.7443 34.184 42 33.656 42 33.1129C42 32.5697 41.7443 32.0418 41.2727 31.611C40.8011 31.1802 40.1399 30.8708 39.3919 30.7307C38.6438 30.5905 37.8508 30.6276 37.1358 30.8362C36.4209 31.0447 35.8242 31.413 35.4383 31.8839C35.1763 31.7607 34.8783 31.6803 34.5662 31.6487C34.2541 31.617 33.9358 31.635 33.6349 31.7012C33.8401 31.56 34.002 31.3908 34.1106 31.2041C34.2193 31.0174 34.2723 30.8171 34.2665 30.6155C34.2606 30.4139 34.1961 30.2152 34.0768 30.0318C33.9575 29.8483 33.7859 29.6839 33.5727 29.5487C33.3595 29.4134 33.1091 29.3102 32.8369 29.2454C32.5647 29.1806 32.2765 29.1555 31.99 29.1717C31.7034 29.1879 31.4247 29.245 31.1708 29.3396C30.9169 29.4342 30.6933 29.5642 30.5137 29.7217C26.8073 28.3663 21.6195 27.3753 18.7669 26.8923C14.673 26.1998 10.499 25.716 8.61642 25.716C6.57112 25.716 4.57969 26.3168 3.00896 27.4077C1.48885 28.4633 0.424328 29.9332 0.0110855 31.5464C-0.0218896 31.6751 0.0193792 31.8078 0.125813 31.9151C0.232247 32.0225 0.395128 32.0958 0.578624 32.119C0.76212 32.1421 0.951199 32.1132 1.10427 32.0385C1.25734 31.9638 1.36185 31.8496 1.39483 31.7208C1.75737 30.3055 2.68192 29.0227 3.99809 28.1086C5.3227 27.1886 6.91978 26.7023 8.61642 26.7023C11.9466 26.7023 23.9183 28.3666 30.0486 30.6644C30.0524 30.895 30.1331 31.1219 30.2842 31.3268C30.4352 31.5317 30.6525 31.709 30.9186 31.8445C31.1848 31.98 31.4924 32.0699 31.8169 32.1072C32.1414 32.1444 32.4738 32.1279 32.7876 32.0589C32.5879 32.1964 32.4291 32.3604 32.3208 32.5414C32.2125 32.7224 32.1566 32.9167 32.1566 33.113C32.1566 33.3093 32.2125 33.5036 32.3208 33.6846C32.4291 33.8656 32.5879 34.0296 32.7876 34.1671C32.4738 34.0981 32.1414 34.0816 31.8168 34.1189C31.4923 34.1561 31.1847 34.2461 30.9186 34.3816C30.6524 34.5171 30.4352 34.6944 30.2841 34.8993C30.1331 35.1042 30.0524 35.3311 30.0486 35.5618C23.9183 37.8594 11.9472 39.5237 8.61642 39.5237C6.91978 39.5237 5.3227 39.0375 3.99809 38.1174C2.68192 37.2033 1.75737 35.9205 1.39483 34.5052V34.5052ZM31.4539 30.6473C31.4539 30.5498 31.4951 30.4545 31.5724 30.3734C31.6496 30.2923 31.7594 30.2291 31.8878 30.1917C32.0163 30.1544 32.1576 30.1447 32.294 30.1637C32.4303 30.1827 32.5556 30.2297 32.6539 30.2986C32.7522 30.3676 32.8192 30.4555 32.8463 30.5511C32.8734 30.6468 32.8595 30.7459 32.8063 30.8361C32.7531 30.9262 32.663 31.0032 32.5474 31.0574C32.4318 31.1116 32.2959 31.1405 32.1568 31.1405C31.9705 31.1403 31.7918 31.0883 31.66 30.9959C31.5282 30.9034 31.4541 30.7781 31.4539 30.6473V30.6473ZM40.5922 33.113C40.5922 33.4056 40.4685 33.6916 40.2367 33.9349C40.005 34.1782 39.6757 34.3678 39.2903 34.4798C38.905 34.5918 38.481 34.6211 38.0719 34.564C37.6628 34.5069 37.2871 34.366 36.9922 34.1591C36.6972 33.9522 36.4964 33.6886 36.415 33.4016C36.3336 33.1146 36.3754 32.8172 36.535 32.5469C36.6946 32.2765 36.9649 32.0455 37.3117 31.8829C37.6585 31.7204 38.0662 31.6336 38.4833 31.6336C39.0424 31.6341 39.5784 31.7901 39.9738 32.0674C40.3691 32.3448 40.5915 32.7208 40.5922 33.113V33.113ZM33.5627 33.113C33.5627 33.0155 33.604 32.9201 33.6812 32.839C33.7584 32.7579 33.8682 32.6947 33.9967 32.6574C34.1251 32.6201 34.2664 32.6103 34.4028 32.6293C34.5392 32.6484 34.6644 32.6953 34.7627 32.7643C34.861 32.8333 34.928 32.9211 34.9551 33.0168C34.9822 33.1125 34.9683 33.2116 34.9151 33.3017C34.8619 33.3918 34.7718 33.4688 34.6562 33.523C34.5406 33.5772 34.4047 33.6061 34.2657 33.6061C34.0793 33.606 33.9006 33.554 33.7688 33.4615C33.6371 33.3691 33.5629 33.2437 33.5627 33.113ZM32.1568 35.0855C32.2959 35.0855 32.4318 35.1145 32.5474 35.1686C32.663 35.2228 32.7531 35.2999 32.8063 35.39C32.8595 35.4801 32.8734 35.5792 32.8463 35.6749C32.8192 35.7705 32.7522 35.8584 32.6539 35.9274C32.5556 35.9963 32.4303 36.0433 32.294 36.0623C32.1576 36.0814 32.0163 36.0716 31.8878 36.0343C31.7594 35.9969 31.6496 35.9337 31.5724 35.8526C31.4951 35.7715 31.4539 35.6762 31.4539 35.5787C31.4541 35.4479 31.5282 35.3226 31.66 35.2301C31.7918 35.1377 31.9705 35.0857 32.1568 35.0855V35.0855Z" fill="#FA5747"/>
</svg>
