<svg width="100%" height="auto" viewBox="0 0 42 41" fill="none" xmlns="http://www.w3.org/2000/svg">
<path d="M41.998 32.9194C41.9976 32.9134 41.9977 32.9076 41.9971 32.9017C41.9949 32.8782 41.9914 32.8551 41.9864 32.8326L41.9846 32.8259C41.9797 32.8052 41.9738 32.785 41.9667 32.7652C41.9648 32.7599 41.9628 32.7547 41.9607 32.7495C41.9538 32.7315 41.946 32.7141 41.9374 32.6971C41.9359 32.694 41.935 32.691 41.9334 32.688L38.643 26.4281V5.83284C38.643 5.1994 38.1087 4.68408 37.4519 4.68408H4.54789C3.89115 4.68408 3.35688 5.1994 3.35688 5.83284V26.4279L0.0665273 32.6879C0.0649687 32.6909 0.0639844 32.694 0.0625078 32.697C0.0538945 32.714 0.0461836 32.7315 0.0392109 32.7494C0.0371602 32.7546 0.0351094 32.7598 0.0332227 32.7651C0.02625 32.785 0.0201797 32.8053 0.0153398 32.826L0.0136172 32.8324C0.00861328 32.8551 0.00508594 32.8781 0.00287109 32.9016C0.00229688 32.9074 0.00229687 32.9134 0.00196875 32.9192C0.00114844 32.9316 0 32.9438 0 32.9563V34.4616C0 35.214 0.634512 37.3452 1.41455 37.3452H40.5855C41.3655 37.3452 42 35.214 42 34.4616V32.9563C42 32.9438 41.9989 32.9316 41.998 32.9194ZM4.58743 5.87106H37.4126V25.9764H4.58743V5.87106ZM4.35004 27.1632H37.6499L40.383 32.3628H26.8659L26.1874 29.99C26.0493 29.507 25.5901 29.1696 25.0706 29.1696H16.9293C16.4098 29.1696 15.9505 29.507 15.8124 29.9899L15.1339 32.3628H1.61692L4.35004 27.1632ZM40.7695 34.4615C40.7695 34.5594 40.871 35.4463 40.7695 35.4463H21H1.23047C1.04639 36.2535 1.23047 35.4463 1.23047 34.4615V33.5496H40.7695V34.4615Z" fill="#FFD83B"/>
<path d="M35.4848 14.2186C35.1449 14.2186 34.8696 14.576 34.8696 15.017V23.1135H7.13037V15.017C7.13037 14.576 6.85499 14.2186 6.51514 14.2186C6.17528 14.2186 5.8999 14.576 5.8999 15.017V23.4583C5.8999 24.1486 6.33262 24.7103 6.86467 24.7103H35.1353C35.6673 24.7103 36.1001 24.1487 36.1001 23.4583V15.017C36.1 14.5762 35.8247 14.2186 35.4848 14.2186Z" fill="#FFD83B"/>
<path d="M35.1353 7.13696H6.86467C6.3327 7.13696 5.8999 7.55433 5.8999 8.06751V14.3413C5.8999 14.6691 6.17528 14.9347 6.51514 14.9347C6.85499 14.9347 7.13037 14.6691 7.13037 14.3413V8.32378H34.8696V14.3413C34.8696 14.6691 35.1449 14.9347 35.4848 14.9347C35.8247 14.9347 36.1 14.6691 36.1 14.3413V8.06751C36.1 7.55425 35.6673 7.13696 35.1353 7.13696Z" fill="#FFD83B"/>
</svg>
