<svg width="100%" height="auto" viewBox="0 0 42 42" fill="none" xmlns="http://www.w3.org/2000/svg">
<rect x="22.4663" y="33.0577" width="18.5336" height="7.45234" stroke="#FA5747" stroke-width="2"/>
<path d="M25.2002 32.0576V28.1567V24.2557V20.3547V17.7618C25.2002 16.9223 25.5242 16.1153 26.1046 15.5088V15.5088C26.7192 14.8665 27.5779 14.5033 28.4669 14.5033V14.5033H34.5336H34.6045C35.4632 14.5033 36.2946 14.805 36.9534 15.3558V15.3558C37.7859 16.0516 38.267 17.0808 38.267 18.1658V20.3547V24.2557V28.1567V32.0576" stroke="#FA5747" stroke-width="2"/>
<path d="M5.6001 29.357V23.0555V16.7539V10.4523V7.16457V5.28991C5.6001 3.77675 6.39727 2.3755 7.69798 1.60232L8.17638 1.31794C8.52647 1.10984 8.9262 1 9.33347 1V1C9.74074 1 10.1405 1.10984 10.4906 1.31794L10.969 1.60232C12.2697 2.3755 13.0668 3.77675 13.0668 5.28991V7.16457V10.4523V16.7539V23.0555V29.357" stroke="#FA5747" stroke-width="2"/>
<path d="M1.18512 40.5099L2.91789 30.3569H15.749L17.4817 40.5099H1.18512Z" stroke="#FA5747" stroke-width="2"/>
<rect x="7.4668" y="14.5033" width="3.73337" height="1.35" rx="0.675" fill="#FA5747"/>
<rect x="7.4668" y="17.204" width="3.73337" height="1.35" rx="0.675" fill="#FA5747"/>
<rect x="28.9336" y="25.306" width="5.60006" height="1.35" rx="0.675" fill="#FA5747"/>
<rect x="28.9336" y="22.6053" width="5.60006" height="1.35" rx="0.675" fill="#FA5747"/>
</svg>
