<svg width="100%" height="auto" viewBox="0 0 42 41" fill="none" xmlns="http://www.w3.org/2000/svg">
<g clip-path="url(#clip0)">
<path d="M23.9147 12.7248C22.4608 14.1564 21.4845 16.0962 23.07 17.9451C24.8236 19.9902 26.9655 20.1449 28.8206 18.7569C29.5992 20.3663 30.8986 21.8606 32.9228 21.2962C35.0536 20.7022 35.911 19.1366 35.8716 17.2875C37.3854 17.7345 38.8813 17.6142 40.2452 16.4684C41.961 15.0272 41.2121 13.0241 40.1024 11.5054C41.9971 10.3808 42.678 8.73012 41.1927 6.51602C39.7962 4.43421 37.5162 4.30423 35.4585 5.05627C35.4681 3.17229 34.4336 1.84265 32.0601 1.54191C30.8641 1.39037 29.5879 1.78651 28.6087 2.43769C27.674 3.0594 27.4521 4.02307 27.4525 5.02002C25.1619 4.41491 23.03 5.14795 21.5532 7.30259C20.0052 9.56239 22.001 11.5164 23.9147 12.7248ZM24.857 6.59568C25.8768 6.17561 27.0106 6.53067 27.9412 6.97988C28.6875 7.34017 29.3653 6.60411 29.2302 6.01284C29.0801 4.26971 29.8445 3.29636 31.642 3.21303C33.782 3.1138 33.9983 4.62991 33.564 6.28012C33.38 6.98113 34.1699 7.63004 34.8274 7.23323C36.3805 6.29578 38.0589 5.74024 39.5309 7.16697C40.1628 7.77954 40.7915 9.04971 39.8061 9.78431C39.3805 10.1017 38.8279 10.2899 38.3446 10.5017C37.8112 10.735 37.834 11.4606 38.1705 11.8269C39.0374 12.7707 40.1492 13.9604 39.0301 15.2753C38.0558 16.42 36.3301 15.7732 35.2575 15.2277C34.59 14.8878 33.8046 15.4403 33.9945 16.1805C34.392 17.7305 34.2523 19.4441 32.2397 19.6959C30.8951 19.8636 30.2959 18.0156 29.9783 17.0821C29.7859 16.517 28.9956 16.2081 28.5414 16.7099C27.3808 17.9912 26.1322 18.494 24.6845 17.2162C23.0793 15.7992 24.5852 14.2227 25.8 13.3092C26.2774 12.95 26.4285 12.1804 25.8 11.8518C24.6576 11.2544 22.9 10.4535 22.7681 9.00853C22.6715 7.95252 24.0071 6.94594 24.857 6.59568Z" fill="#5DD482"/>
<path d="M31.6076 8.31592C33.379 8.31592 34.8147 9.72544 34.8147 11.4639C34.8147 13.2027 33.3789 14.612 31.6076 14.612C29.8362 14.612 28.4004 13.2027 28.4004 11.4639C28.4004 9.72544 29.8363 8.31592 31.6076 8.31592Z" fill="#5DD482"/>
</g>
<path d="M29.2173 18.9597L27.8477 20.8336L27.004 21.9881C26.6541 22.4668 26.3475 22.9757 26.0878 23.5086L25.5651 24.5815L24.6521 26.4554L24.1955 27.8609L23.739 29.2663L23.5667 29.9739C23.3779 30.7487 23.2825 31.5433 23.2825 32.3408V32.5457V36.7621V38.636V40.5099" stroke="#5DD482" stroke-width="2"/>
<path d="M12.7099 12.6608V6.33149C12.7099 5.63241 12.3542 5.06561 11.9155 5.06561H11.1211V1.268C11.1211 0.568926 10.7655 0.0021319 10.3268 0.0021319C9.20213 0.0021319 7.47985 -0.135215 5.45809 1.79492C4.2013 1.19878 3.31246 1.268 2.3831 1.268C1.94436 1.268 1.58873 1.8348 1.58873 2.53387V5.06561H0.794366C0.355628 5.06561 0 5.63241 0 6.33149V12.6608C0 17.8163 2.43001 22.084 5.56056 22.7088V39.2441C5.56056 39.9432 5.91619 40.51 6.35493 40.51C6.79366 40.51 7.14929 39.9432 7.14929 39.2441V34.8136H8.34084C10.7499 34.8136 12.7099 31.6903 12.7099 27.8513V25.9525C12.7099 25.2534 12.3542 24.6866 11.9155 24.6866H9.92957C8.87431 24.6866 7.90523 25.2859 7.14929 26.2822V22.7082C10.2752 22.0913 12.7099 17.8448 12.7099 12.6608V12.6608ZM11.1211 12.6608C11.1211 14.9137 10.4959 16.9484 9.50776 18.3435C9.52335 18.1404 9.53239 17.9341 9.53239 17.7243C9.53239 14.5186 8.78032 11.5879 7.5431 9.35526C8.59201 8.21471 9.83564 7.59736 11.1211 7.59736V12.6608ZM9.53239 2.53387V5.321C9.38558 5.36863 9.23982 5.42299 9.09524 5.48367C8.5799 4.56441 7.99216 3.78123 7.35047 3.14837C8.0441 2.74425 8.78042 2.53387 9.53239 2.53387V2.53387ZM3.17746 3.79974C4.75562 3.79974 6.2882 4.71805 7.4801 6.47263C7.08674 6.79614 6.70956 7.17329 6.35259 7.60092C5.42899 6.49439 4.3498 5.70084 3.17746 5.32013V3.79974ZM1.58873 12.6608V7.59736C5.09283 7.59736 7.94366 12.1402 7.94366 17.7243C7.94366 19.1389 7.21061 20.2916 6.31317 20.2549C3.52247 20.1451 1.58873 16.6119 1.58873 12.6608ZM9.92957 27.2184H11.1211V27.8513C11.1211 30.2943 9.87392 32.2818 8.34084 32.2818H7.14929V31.6489C7.14929 29.2059 8.39655 27.2184 9.92957 27.2184Z" fill="#5DD482"/>
<defs>
<clipPath id="clip0">
<rect width="21" height="20.6132" fill="white" transform="translate(21 1.15723)"/>
</clipPath>
</defs>
</svg>
