<svg width="59" height="54" viewBox="0 0 59 54" fill="none" xmlns="http://www.w3.org/2000/svg">
<path d="M15 0.25H44C52.1462 0.25 58.75 6.8538 58.75 15V27.6497C58.75 35.7959 52.1462 42.3997 44 42.3997H15.2182C14.0548 42.3997 12.95 42.9102 12.1961 43.7962C11.5854 44.5139 11.25 45.4255 11.25 46.3679V49.5V53C11.25 53.6904 10.6904 54.25 10 54.25C4.61522 54.25 0.25 49.8848 0.25 44.5V28.4656V15C0.25 6.8538 6.8538 0.25 15 0.25Z" fill="white" stroke="white" stroke-width="0.5"/>
<g clip-path="url(#clip0)">
<path d="M40.2788 22.3705L31.1026 15.9535C30.6789 15.657 30.2519 15.5 29.897 15.5C29.2108 15.5 28.7864 16.0625 28.7864 17.0041V30.8731C28.7864 31.8136 29.2103 32.375 29.8948 32.375C30.2503 32.375 30.6704 32.2179 31.0951 31.9205L40.2756 25.5037C40.866 25.0903 41.193 24.5341 41.193 23.9367C41.1931 23.3398 40.8699 22.7837 40.2788 22.3705Z" fill="#51D67B"/>
</g>
<rect x="18.9995" y="19" width="12" height="10" fill="#51D67B"/>
<defs>
<clipPath id="clip0">
<rect width="16.52" height="16.875" fill="white" transform="translate(26.7297 15.5)"/>
</clipPath>
</defs>
</svg>
